<?xml version="1.0" encoding="UTF-8"?>
<svg id="Capa_1" data-name="Capa 1" xmlns="http://www.w3.org/2000/svg" viewBox="0 0 264.48 178.79">
  <defs>
    <style>
      .cls-1 {
        fill: #fff200;
      }

      .cls-1, .cls-2, .cls-3 {
        stroke-width: 0px;
      }

      .cls-2 {
        fill: #231f20;
      }

      .cls-4 {
        fill: none;
        stroke: #231f20;
        stroke-miterlimit: 10;
        stroke-width: 1.79px;
      }

      .cls-3 {
        fill: #fff;
      }
    </style>
  </defs>
  <circle class="cls-3" cx="127.03" cy="90.04" r="88.75" transform="translate(14.81 197.98) rotate(-79.22)"/>
  <path class="cls-2" d="M222.87,49.01c.08-.27,8.11-26.92,16.69-39.78.33-.5.4-1.13.18-1.69-.22-.56-.69-.98-1.28-1.12l-.25-.06c.25-.47.29-1.02.1-1.52-.22-.56-.69-.98-1.28-1.12L222.08.05c-.97-.24-1.96.34-2.22,1.31-.08.29-5.61,21-9.07,33.92,1.93-14.56,4.71-27.48,4.75-27.66.14-.64-.07-1.31-.56-1.75-.28-.25-.62-.4-.97-.45.06-.3.1-.48.11-.5.14-.64-.07-1.3-.56-1.75-.48-.44-1.16-.59-1.79-.4l-19.61,6.13c-.55.17-.99.6-1.18,1.14-.61,1.74-4.08,11.49-7.89,22.22-.46-.32-1.04-.43-1.58-.26l-14.44,4.46c1.96-2.49,4.04-4.45,5.81-4.84,0,0,.13-.03.32-.03.53,0,.67.18.79.6.19.64.72,1.14,1.37,1.28.66.14,1.34-.08,1.78-.59l7.72-8.89c.32-.36.48-.83.45-1.31-.1-1.69-.71-4.17-2.17-6.16-1.06-2.91-3.38-5.91-7.81-5.91-.93,0-1.92.14-2.93.4-.27.07-6.72,1.73-13.48,7.7-.99.87-2.02,1.88-3.05,3.01.49-1.74.79-2.78.8-2.84.19-.67,0-1.38-.51-1.85-.29-.27-.64-.42-1.02-.46.06-.23.1-.36.11-.38.19-.67,0-1.38-.52-1.85-.51-.47-1.24-.62-1.88-.38l-11.03,4.05c-.57.21-1,.69-1.15,1.28l-1.38,5.48c.06-1.53.12-3,.17-4.34.03-.61-.25-1.18-.73-1.55-.22-.16-.47-.27-.73-.32.01-.28.02-.56.03-.83.03-.61-.25-1.18-.73-1.55-.48-.36-1.12-.46-1.69-.27l-10.47,3.53c-.1-.26-.25-.5-.46-.69-.52-.47-1.25-.61-1.9-.36l-11.71,4.54c-.22.09-.42.22-.59.38,0,0-.01-.02-.02-.02-.45-.41-1.07-.57-1.66-.43l-26.72,6.25c-.81.19-1.39.89-1.42,1.72l-.52,12.93c-.02.57.22,1.12.66,1.49.23.19.51.32.79.38l-.03.83c-.02.57.22,1.12.66,1.49.44.37,1.03.51,1.58.38l.67-.15-9.38,11.35,3.28-28.52c.07-.61-.17-1.21-.64-1.61-.25-.21-.55-.34-.87-.4l.08-.68c.07-.61-.17-1.21-.64-1.61-.47-.4-1.1-.54-1.69-.37l-18.51,5.27c-.57.16-1.03.59-1.23,1.15l-2.44,6.82c.03-1.14-.07-1.88-.11-2.11-.15-1.15-.58-2.38-1.56-3.42-.6-2.54-2.78-5.23-9.38-5.23-9.24,0-22.76,5.19-23.33,5.41-.61.24-1.05.78-1.15,1.43-3.35,21.67-10.33,53.49-10.4,53.81-.12.54.01,1.1.35,1.53.29.38.72.61,1.19.68-.07.3-.1.47-.11.49-.12.54,0,1.1.35,1.53.34.43.85.69,1.4.71.53.02,1.05.02,1.56.02,0,0,0,0,0,0,12.49,0,20.78-4.35,26.27-9.65.28.25.63.4,1,.44l-.09.26c-.22.62-.1,1.31.33,1.81.35.41.87.65,1.4.65.11,0,.23,0,.34-.03l13.12-2.45c.72-.14,1.3-.69,1.46-1.41l.35-1.59c.12.18.27.35.45.48.19.14.41.23.64.28v.93c.01.59.3,1.14.78,1.48.48.34,1.1.43,1.66.24l11.52-3.93s.02.02.03.03c.24.21.53.34.83.41l-.04.81c-.03.56.21,1.11.63,1.48.34.29.76.45,1.2.45.12,0,.23-.01.35-.03l26.72-5.2c.33-.07.63-.22.87-.44.23.1.48.16.74.16.24,0,.48-.05.71-.14,1.4-.59,4.86-2.06,7.41-3.14.11.48.41.92.85,1.18.21.13.44.19.68.22-.07.3-.11.47-.11.49-.17.78.17,1.58.86,1.98.29.17.61.26.94.26.44,0,.87-.16,1.21-.46,1.87-1.64,8-4.3,10.2-5.19.59-.24,1.01-.76,1.12-1.38.5-2.81,1.14-5.78,1.74-8.41.97,2.92,1.8,5.29,1.87,5.51.15.42.45.77.83.98.33.97.55,1.61.59,1.71.19.54.62.96,1.17,1.14.55.18,1.15.09,1.62-.24.69-.48,5.75-2.85,10.24-4.85.58-.26.99-.81,1.07-1.44.13-1.03.31-2.17.53-3.4.35.83.78,1.63,1.29,2.37.5,1.24,1.14,2.43,1.99,3.46,1.75,2.12,4.07,3.33,6.95,3.58,0,0,.1,0,.28,0,1.26,0,8.55-.38,16.04-8.57.08.17.17.33.3.48.3.34.72.54,1.15.59-.05.15-.09.25-.09.26-.22.64-.09,1.34.36,1.84.35.39.85.61,1.37.61.14,0,.28-.02.42-.05,4.62-1.09,12.22-3.05,12.3-3.07.61-.16,1.1-.62,1.29-1.22l.23-.73c.1.14.21.26.34.37.26.21.58.34.9.38l-.11.46c-.16.69.08,1.41.64,1.86.55.44,1.31.53,1.95.23l11.1-5.32s.04.06.06.09c.08.1.17.18.26.28.2.9.59,1.73,1.16,2.42,1.16,1.4,2.96,2.16,5.06,2.16,2.58,0,5.43-1.14,7.82-3.13,2.06-1.71,3.56-3.86,4.24-6.07.76-2.45.41-4.79-.95-6.42-.08-.1-.17-.19-.26-.28-.05-.23-.12-.45-.19-.67.74-.07,1.38-.57,1.59-1.3ZM45.47,59.1c-.17-.26-.37-.51-.59-.74-.29-.3-.61-.56-.95-.79,1.47-1.55,2.7-3.08,3.72-4.55l-2.18,6.08ZM101.61,61.17c-.06-.09-.13-.17-.21-.25-.44-.41-1.05-.57-1.63-.45l-6.23,1.33,10.94-13.48c-.99,4.42-1.99,8.88-2.88,12.84ZM160.86,54.96h0c-.17,0-.34,0-.51-.03-.13-.01-.17-.02-.29,0-.11,0-.49-.02-.89-.2-.11-1.67.28-4.48,2.22-9.11l-.99,4.3c-.15.67.08,1.38.61,1.82.27.22.59.36.92.41l-.11.47c-.16.67.08,1.38.61,1.82.08.07.18.12.27.17-.59.23-1.21.36-1.84.36Z"/>
  <polygon class="cls-2" points="0 168.41 59.8 148.82 53.18 156.52 95.16 142.87 87.11 152.32 125.94 139.61 120.28 148.82 173.52 131.33 165.13 139.61 221.8 123.98 217.13 131.68 264.48 122.34 163.73 164.22 176.32 152.32 127.34 165.26 144.14 153.37 88.51 171.56 102.85 157.92 53.18 175.41 66.54 162.12 18.89 175.41 30.73 164.57 0 168.41"/>
  <g>
    <path class="cls-1" d="M35.83,58.11c14.95-11.78,12.92-23.11,12.92-23.11-1.25-10.36-30.36.91-30.36.91-3.4,21.98-10.42,53.93-10.42,53.93,32.17.91,36.25-27.19,36.25-27.19.23-5.89-8.38-4.53-8.38-4.53ZM29.63,46.6c15.6-4.04-2.69,10.78-2.69,10.78l2.69-10.78ZM35.13,66.92c-.79,4.6-11.9,8.42-11.9,8.42l1.57-8.42c10.89-2.92,10.33,0,10.33,0Z"/>
    <path class="cls-1" d="M56.27,33.35l-17.9,50.02,13.12-2.45,1.47-6.62,3.56-.61.06,7.72,12.57-4.29,5.64-49.04-18.51,5.27ZM58.96,63.5l-3.56.98,6.99-25.74-3.43,24.76Z"/>
    <polygon class="cls-1" points="107.02 37.39 108.86 24.64 82.13 30.89 81.62 43.82 92.06 41.44 72.08 65.62 71.34 80.54 98.07 75.34 99.79 62.28 84.09 65.62 107.02 37.39"/>
    <path class="cls-1" d="M142.08,19.74l-6.74,26.72c-.61-3.06.49-28.81.49-28.81l-11.28,3.8c-4.35,14.89-13.18,54.43-13.18,54.43,2.51-2.21,10.73-5.52,10.73-5.52,1.35-7.6,3.68-16.3,3.68-16.3.74,3.92,4.9,15.81,4.9,15.81,1.23-.86,10.54-5.03,10.54-5.03,1.84-14.1,11.89-49.16,11.89-49.16l-11.03,4.05Z"/>
    <path class="cls-1" d="M111.37,24.64c-1.16,4.78-11.34,50.38-11.34,50.38,2.33-.98,10.42-4.41,10.42-4.41.24-6.86,12.63-50.51,12.63-50.51l-11.71,4.54Z"/>
    <path class="cls-1" d="M164.39,39.11l-2.57,11.22s6.99-2.94,9.56-3.68c0,0-4.41,10.85-11.59,10.11,0,0-8.28.55-1.84-14.71,0,0,6.64-13.59,12.69-14.89,0,0,2.57-.67,3.31,1.84l7.72-8.89s-.56-9.56-9.2-7.29c0,0-24.82,6.19-27.22,39.78,0,0-1.65,15.75,8.64,16.67,0,0,18.94,1.1,27.77-35.49l-17.29,5.33Z"/>
    <path class="cls-1" d="M219.31,45.79s8.09-27.03,16.92-40.27l-14.96-3.68s-11.03,41.31-11.77,43.95h9.81Z"/>
    <path class="cls-1" d="M208.23,50.94c-3.68,3.07-5.05,7.5-3.05,9.9,2,2.4,6.6,1.86,10.29-1.2,3.69-3.07,5.06-7.5,3.06-9.9-2-2.4-6.6-1.86-10.29,1.21Z"/>
    <path class="cls-1" d="M205.46,50.51c.91-20.21,6.49-45.98,6.49-45.98l-19.61,6.13c-1.47,4.17-19.12,53.82-19.12,53.82,4.66-1.1,12.26-3.06,12.26-3.06l2.21-6.86,4.9-.98-2.21,9.32,11.8-5.66c-.07-1.91.5-4.48,3.28-6.72ZM194.06,44.5h-3.92c.98-3.43,8.34-27.46,8.34-27.46-.73,2.45-4.41,27.46-4.41,27.46Z"/>
  </g>
  <g>
    <g>
      <path class="cls-2" d="M48.66,109.74c1.31-3.8,3.16-7.15,5.55-10.05,2.39-2.9,5.1-5,8.13-6.3.8-.4,1.63-.68,2.5-.83.86-.16,1.39-.25,1.58-.27,1.39-.15,2.96.07,4.73.65,2.17.87,3.91,2.01,5.21,3.41,1.3,1.41,2.17,2.49,2.6,3.25-.98.79-1.95,1.57-2.91,2.33-1.1.88-2.2,1.76-3.32,2.64-.41-.33-1-.69-1.78-1.09-.77-.4-1.67-.66-2.69-.79-.47-.03-.91-.02-1.32.02-.8.08-1.58.34-2.32.76-.74.42-1.37.88-1.88,1.39-1.62,1.5-2.91,3.41-3.84,5.73-.94,2.32-1.41,4.6-1.41,6.86,0,.12.01.79.04,2.02.03,1.23.75,2.55,2.16,3.97,1.04.99,2.12,1.66,3.26,2.01,1.13.35,2.08.48,2.85.4.59-.06,1.16-.23,1.73-.5.74-.43,1.3-.97,1.67-1.61.37-.65.62-1.26.73-1.84.12-.58.18-.98.18-1.19-2.15.13-4.3.25-6.43.35.08-2.38.17-4.76.26-7.16,0-.16,0-.31.03-.47l7.81-.41c2.62-.14,5.23-.28,7.84-.41.47,1.77.73,3.4.78,4.88s.07,2.33.07,2.55c0,2.52-.49,5.18-1.47,7.96-.88,2.25-2.14,4.35-3.79,6.33-1.64,1.97-3.36,3.41-5.15,4.31s-3.42,1.43-4.89,1.59c-.98.1-1.99.09-3.02-.03-.57-.04-1.7-.32-3.4-.86-1.7-.54-3.51-1.61-5.43-3.23l-.94-1.05c-.65-.7-1.32-1.57-2.02-2.63-2.1-3.4-3.19-6.21-3.29-8.42-.1-2.21-.15-3.55-.15-4.02,0-3.46.58-6.87,1.73-10.22Z"/>
      <path class="cls-2" d="M86.82,106.82c1.1-5.38,2.14-10.77,3.14-16.18,2.33-.3,4.67-.6,7.02-.88,2.48-.32,4.98-.64,7.49-.96-.08,1.89-.12,3.83-.12,5.83,0,5.5.29,11.47.88,17.9.8,7.78,1.91,14.91,3.32,21.37l-5.46.87c-1.8.29-3.59.56-5.37.83v-.21c.08-2.45.16-4.92.24-7.39-1.23.05-2.47.09-3.7.12-.08.65-.16,1.3-.23,1.93l-.59,4.52c-1.76.2-3.51.42-5.25.64-2.62.33-5.24.67-7.84,1,2.33-9.74,4.49-19.53,6.49-29.39ZM94.33,120.82l3.29-.11c-.04-2.54-.09-5.08-.15-7.62l-.23-15.24-.53,4.22c-.8,6.25-1.6,12.5-2.38,18.74Z"/>
      <path class="cls-2" d="M113,108.76c.84-6.7,1.6-13.43,2.29-20.17.98-.24,1.97-.48,2.96-.72l6.81-1.66c.55,3.76,1.15,7.53,1.82,11.32.63,3.67,1.31,7.36,2.05,11.06.78-3.17,1.62-6.32,2.52-9.42,1.21-4.28,2.53-8.5,3.96-12.66l3.87-.99c2.15-.56,4.3-1.12,6.43-1.67-.49,7.61-.74,15.25-.76,22.95v.88c0,7.67.24,15.38.73,23.11l-2.35.54c-2.9.68-5.79,1.34-8.69,2,.04-3.12.08-6.24.12-9.38.04-3.92.08-7.83.12-11.73-1.04,2.65-2.02,5.51-2.94,8.56-.78,2.55-1.46,5.02-2.03,7.4-1.17.24-2.34.48-3.49.72-.84.17-1.67.33-2.5.5-.53-2.17-1.02-4.42-1.47-6.74-.59-2.87-1.08-5.65-1.47-8.33-.33,6.4-.68,12.79-1.03,19.19l-10.86,2.37c1.45-9,2.74-18.04,3.88-27.12Z"/>
      <path class="cls-2" d="M147.7,129.83c.53-9.47.91-18.93,1.14-28.39.14-6.18.23-12.36.26-18.55l1.88-.26c.51-.07,1.02-.14,1.53-.19v-.03l.88-.09c.1-.03.21-.05.32-.06,1.25-.17,2.51-.33,3.76-.48,1-.14,2-.28,2.99-.4,2.88-.4,5.75-.83,8.63-1.29,2.56-.41,5.12-.83,7.66-1.28-.04.67-.09,1.34-.15,2.01l-.59,7.4c-2.64.18-5.35.42-8.13.71-1.84.19-3.72.41-5.64.65-1.02.15-2.02.29-2.99.43-.37,2.97-.68,6.01-.94,9.11,2.31-.3,4.06-.53,5.26-.7,3.25-.48,6.48-.98,9.69-1.52-.12,1.66-.23,3.32-.32,5-.08,1.28-.17,2.55-.26,3.81-3.86.17-7.86.46-12.01.88-.84.11-1.68.21-2.53.29-.06,0-.12.02-.18.05l-.15.02c-.18,3.6-.26,7.3-.26,11.09v1.12c2.6-.33,5.3-.78,8.1-1.35,3.21-.67,6.17-1.4,8.89-2.2-.06,2.37-.12,4.76-.18,7.15l-.12,4.36c-3.88.17-7.89.48-12.04.91-.84.09-1.68.18-2.53.27-.08,0-.19.02-.34.05-.15.02-.36.05-.63.08-.45.05-1.18.14-2.2.29-1.25.15-2.74.34-4.45.56-1.71.22-3.17.4-4.39.55Z"/>
      <path class="cls-2" d="M176.11,121.03l6.05-9.32c1.53,1.56,2.99,2.52,4.39,2.87,1.4.35,2.53.48,3.39.39.74-.08,1.45-.28,2.11-.6,1.1-.6,1.85-1.31,2.27-2.12.42-.81.63-1.47.63-2,0-.43-.11-.85-.32-1.26-.35-.53-.9-.9-1.64-1.1-.74-.2-1.61-.36-2.61-.47-1.25-.12-2.61-.39-4.08-.79-1.47-.4-2.93-1.18-4.37-2.34-.16-.12-.46-.4-.91-.84-.45-.44-.91-1-1.38-1.68-1.23-1.98-1.85-4.16-1.85-6.53,0-.7.14-2.04.43-4.01.28-1.97,1.43-4.24,3.45-6.81,2.02-2.57,4.57-4.15,7.66-4.75.18-.04.38-.07.62-.09.43-.05,1.04-.06,1.84-.06.79,0,1.79.26,2.98.76,1.9.9,3.45,2.39,4.65,4.47,1.2,2.09,1.93,4.51,2.19,7.29-2.66.26-5.32.53-7.98.81v-.26c0-.18,0-.43-.03-.76-.02-.33-.12-.73-.31-1.2s-.49-.87-.92-1.19l-.68-.31c-.18-.06-.35-.08-.53-.06-.08,0-.2.04-.37.08-.17.05-.35.13-.54.25-.2.12-.32.2-.38.25-.33.21-.86.72-1.58,1.53-.72.81-1.26,1.62-1.6,2.43-.34.81-.51,1.47-.51,1.98,0,.55.13,1.08.38,1.6.51.91,1.32,1.52,2.45,1.86,1.13.33,2.4.59,3.83.77,1.58.17,3.17.48,4.77.95,1.59.47,3.01,1.32,4.24,2.56,1.29,1.49,2.02,2.86,2.17,4.12.16,1.26.24,2.25.24,2.97,0,.86-.1,1.83-.31,2.89-.2,1.07-.39,1.81-.54,2.22-.98,2.71-2.63,4.99-4.96,6.86-2.33,1.87-4.35,2.97-6.08,3.31-1.72.34-2.82.53-3.29.58-2.47.26-4.89-.09-7.28-1.05-1.29-.57-2.41-1.23-3.36-1.99-.95-.76-1.72-1.48-2.3-2.17Z"/>
    </g>
    <g>
      <path class="cls-2" d="M63.84,141.28c-.59,0-1.2-.04-1.81-.11-.37-.02-1.2-.15-3.58-.9-1.83-.57-3.77-1.72-5.78-3.42-.04-.03-.07-.06-.1-.1l-.94-1.05c-.67-.72-1.39-1.65-2.11-2.75-2.22-3.61-3.35-6.52-3.45-8.93-.1-2.2-.15-3.57-.15-4.06,0-3.56.6-7.11,1.79-10.55,1.35-3.9,3.27-7.38,5.72-10.36,2.48-3.01,5.34-5.23,8.51-6.59.83-.41,1.76-.72,2.71-.9.9-.17,1.46-.26,1.66-.28.31-.03.64-.05.97-.05,1.27,0,2.67.25,4.17.74,2.36.94,4.24,2.17,5.63,3.69,1.36,1.48,2.26,2.6,2.73,3.43.24.43.14.97-.24,1.28-.98.79-1.95,1.57-2.91,2.33-1.1.88-2.2,1.76-3.32,2.64-.18.14-.4.22-.62.22s-.44-.07-.62-.22c-.36-.29-.9-.62-1.61-.98-.67-.34-1.46-.57-2.35-.69-.1,0-.27,0-.42,0-.23,0-.45.01-.67.03-.67.07-1.3.28-1.93.63-.66.38-1.22.79-1.67,1.23-1.53,1.42-2.74,3.22-3.62,5.39-.89,2.19-1.34,4.37-1.34,6.48,0,.12.01.78.04,2,.02.96.65,2.07,1.87,3.29.9.85,1.86,1.45,2.84,1.75.82.25,1.53.38,2.11.38.12,0,.23,0,.34-.02.47-.05.94-.19,1.4-.41.53-.31.96-.72,1.24-1.21.3-.52.5-1.01.6-1.46-1.74.1-3.48.19-5.2.28-.02,0-.03,0-.05,0-.26,0-.52-.1-.7-.29-.2-.2-.31-.47-.3-.75.08-2.38.17-4.77.26-7.17,0-.16.01-.36.04-.56.06-.48.46-.85.94-.88,0,0,15.68-.83,15.7-.83.45,0,.85.3.97.75.49,1.83.76,3.55.81,5.1.05,1.5.07,2.36.07,2.58,0,2.63-.51,5.42-1.52,8.29-.93,2.37-2.26,4.59-3.96,6.64-1.72,2.07-3.56,3.61-5.47,4.57-1.89.95-3.65,1.52-5.23,1.69-.47.05-.96.08-1.44.08Z"/>
      <path class="cls-2" d="M80.33,137.21c-.28,0-.55-.12-.75-.33-.22-.25-.31-.58-.23-.9,2.31-9.67,4.49-19.54,6.48-29.36,1.09-5.35,2.14-10.79,3.14-16.17.08-.43.42-.76.86-.81,2.33-.3,4.67-.6,7.02-.88l7.48-.96s.09,0,.13,0c.25,0,.49.09.68.26.22.2.34.49.32.78-.08,1.86-.12,3.81-.12,5.78,0,5.44.29,11.43.88,17.81.79,7.7,1.9,14.85,3.3,21.25.06.27,0,.55-.15.78-.16.23-.4.38-.67.42l-5.46.87c-1.8.29-3.6.56-5.38.83-.05,0-.1.01-.15.01-.24,0-.47-.09-.65-.24-.22-.19-.35-.47-.35-.76v-.21l.2-6.35c-.59.02-1.18.04-1.77.06l-.13,1.08-.59,4.53c-.06.46-.42.81-.88.87-1.76.2-3.51.42-5.24.64l-7.84,1s-.08,0-.13,0ZM95.47,119.78l1.13-.04c-.04-2.21-.08-4.42-.13-6.62l-.02-1.11c-.33,2.59-.66,5.18-.98,7.77Z"/>
      <path class="cls-2" d="M109.13,136.88c-.25,0-.5-.1-.69-.27-.24-.23-.35-.56-.3-.89,1.44-8.95,2.74-18.06,3.87-27.08.84-6.68,1.61-13.46,2.29-20.15.04-.42.35-.77.76-.87.98-.24,9.78-2.38,9.78-2.38.08-.02.16-.03.24-.03.2,0,.39.06.56.17.23.16.39.41.43.69.54,3.73,1.15,7.53,1.82,11.29.38,2.22.78,4.45,1.2,6.67.46-1.73.94-3.45,1.43-5.15,1.21-4.27,2.55-8.55,3.98-12.7.11-.32.37-.56.7-.65l3.87-1,6.43-1.67c.08-.02.17-.03.25-.03.23,0,.46.08.64.23.25.21.38.52.36.84-.49,7.56-.74,15.26-.76,22.88v.88c0,7.62.25,15.38.73,23.05.03.49-.3.93-.78,1.04l-2.35.54c-2.9.68-5.79,1.34-8.69,2-.07.02-.15.03-.22.03-.23,0-.45-.08-.63-.22-.24-.19-.38-.48-.37-.79l.12-9.38.06-5.77c-.31.95-.62,1.92-.91,2.91-.78,2.53-1.45,5-2.01,7.35-.09.38-.39.67-.77.75l-3.49.72-2.5.5c-.07.01-.13.02-.2.02-.45,0-.86-.31-.97-.77-.51-2.09-.99-4.28-1.42-6.5-.19,3.48-.37,6.96-.57,10.44-.02.45-.35.83-.79.92l-10.86,2.37c-.07.02-.14.02-.21.02Z"/>
      <path class="cls-2" d="M147.7,130.83c-.25,0-.5-.1-.69-.27-.22-.2-.33-.49-.32-.79.52-9.39.91-18.94,1.14-28.36.14-6.16.23-12.4.26-18.53,0-.5.37-.92.87-.99l1.88-.25c.44-.06.88-.12,1.33-.17.07-.03.15-.05.23-.05l.8-.08c.13-.03.27-.06.41-.07,1.22-.17,2.48-.33,3.74-.48.98-.14,1.99-.28,2.99-.4,2.88-.4,5.77-.83,8.6-1.28,2.56-.41,5.11-.83,7.65-1.27.06,0,.11-.01.17-.01.24,0,.48.09.67.25.23.2.35.5.33.81-.04.68-.09,1.36-.15,2.04l-.59,7.39c-.04.5-.44.89-.93.92-2.61.18-5.33.42-8.1.71-1.83.19-3.71.41-5.62.65l-2.22.32c-.28,2.31-.53,4.69-.74,7.07,1.71-.22,3.04-.4,4.01-.54,3.19-.47,6.45-.98,9.66-1.51.05,0,.11-.01.16-.01.25,0,.49.09.67.26.23.21.35.51.33.81-.12,1.65-.22,3.31-.32,4.98-.08,1.29-.17,2.57-.27,3.83-.04.51-.45.9-.96.92-3.82.17-7.84.46-11.95.88-.65.08-1.32.16-1.99.24-.15,3.31-.22,6.73-.22,10.19,2.23-.31,4.55-.71,6.9-1.19,3.17-.66,6.14-1.39,8.81-2.18.09-.03.19-.04.28-.04.22,0,.43.07.61.21.25.2.4.5.39.82l-.18,7.15-.12,4.36c-.01.53-.43.95-.96.97-3.83.17-7.86.48-11.97.91l-2.53.26c-.06,0-.15.02-.27.04-.17.03-.4.06-.7.09-.44.05-1.16.14-2.16.29-1.27.15-2.75.34-4.46.56-1.72.22-3.18.4-4.39.55-.04,0-.08,0-.12,0Z"/>
      <path class="cls-2" d="M187.49,127.33c-2.05,0-4.1-.41-6.09-1.21-1.4-.62-2.6-1.33-3.61-2.14-.99-.79-1.81-1.56-2.44-2.29-.29-.34-.33-.83-.08-1.2l6.05-9.32c.17-.25.44-.42.74-.45.03,0,.07,0,.1,0,.27,0,.53.11.72.3,1.39,1.42,2.71,2.29,3.92,2.6,1.03.26,1.9.39,2.58.39.16,0,.31,0,.46-.02.62-.07,1.22-.24,1.78-.51.87-.48,1.5-1.05,1.83-1.68.45-.86.52-1.34.52-1.54,0-.25-.06-.5-.18-.74-.22-.3-.56-.52-1.05-.65-.69-.19-1.52-.34-2.45-.44-1.29-.12-2.72-.4-4.24-.82-1.59-.44-3.19-1.29-4.73-2.53-.11-.08-.34-.28-.99-.91-.49-.49-1-1.1-1.5-1.82-1.36-2.18-2.03-4.55-2.03-7.1,0-.76.14-2.12.44-4.15.31-2.16,1.51-4.54,3.65-7.28,2.16-2.75,4.94-4.48,8.26-5.12.19-.04.43-.08.7-.11.42-.04,1-.07,1.75-.07h.2c.93,0,2.03.28,3.36.84,2.12,1,3.83,2.64,5.13,4.89,1.27,2.21,2.05,4.79,2.32,7.7.05.55-.35,1.04-.9,1.09-2.66.26-5.32.53-7.98.81-.04,0-.07,0-.11,0-.25,0-.49-.09-.67-.26-.21-.19-.33-.46-.33-.75v-.26c0-.16,0-.39-.03-.7,0-.16-.06-.43-.24-.89-.11-.27-.28-.5-.52-.7l-.48-.22s-.03,0-.05,0c-.1,0-.17.02-.24.04-.04.01-.14.04-.29.14-.15.09-.25.15-.3.19-.18.12-.54.4-1.44,1.4-.65.73-1.13,1.45-1.42,2.15-.36.85-.43,1.33-.43,1.59,0,.4.09.78.28,1.16.35.63.96,1.08,1.83,1.34,1.07.32,2.3.56,3.67.74,1.61.17,3.28.5,4.92.98,1.75.51,3.32,1.46,4.67,2.82,1.48,1.71,2.27,3.23,2.46,4.7.16,1.31.24,2.32.24,3.09,0,.92-.11,1.96-.33,3.08-.22,1.13-.41,1.91-.59,2.38-1.03,2.85-2.81,5.31-5.27,7.29-2.48,1.99-4.61,3.14-6.51,3.51-1.8.35-2.88.54-3.38.59-.55.06-1.12.09-1.67.09Z"/>
    </g>
  </g>
  <g>
    <g>
      <path class="cls-2" d="M44.4,106.79c1.31-3.8,3.16-7.15,5.55-10.05,2.39-2.9,5.1-5,8.13-6.3.8-.4,1.63-.68,2.5-.83.86-.16,1.39-.25,1.58-.27,1.39-.15,2.96.07,4.73.65,2.17.87,3.91,2.01,5.21,3.41,1.3,1.41,2.17,2.49,2.6,3.25-.98.79-1.95,1.57-2.91,2.33-1.1.88-2.2,1.76-3.32,2.64-.41-.33-1-.69-1.78-1.09-.77-.4-1.67-.66-2.69-.79-.47-.03-.91-.02-1.32.02-.8.08-1.58.34-2.32.76-.74.42-1.37.88-1.88,1.39-1.62,1.5-2.91,3.41-3.84,5.73s-1.41,4.61-1.41,6.86c0,.12.01.79.04,2.02.03,1.23.75,2.55,2.16,3.97,1.04.99,2.12,1.66,3.26,2.01,1.13.35,2.08.48,2.85.4.59-.06,1.16-.23,1.73-.51.74-.43,1.3-.97,1.67-1.61.37-.65.62-1.26.73-1.84.12-.58.18-.98.18-1.19-2.15.13-4.29.25-6.43.35.08-2.38.16-4.76.26-7.16,0-.16,0-.31.03-.47l7.81-.41c2.62-.14,5.23-.28,7.84-.41.47,1.77.73,3.4.78,4.88s.07,2.33.07,2.55c0,2.52-.49,5.18-1.47,7.96-.88,2.25-2.14,4.35-3.79,6.33-1.64,1.97-3.36,3.41-5.15,4.31s-3.42,1.43-4.89,1.59c-.98.1-1.99.09-3.02-.03-.57-.04-1.7-.33-3.4-.86-1.7-.54-3.51-1.61-5.43-3.23l-.94-1.05c-.65-.7-1.32-1.57-2.02-2.63-2.1-3.4-3.19-6.21-3.29-8.42-.1-2.21-.15-3.55-.15-4.02,0-3.46.58-6.87,1.73-10.22Z"/>
      <path class="cls-2" d="M82.56,103.86c1.1-5.38,2.14-10.77,3.14-16.18,2.33-.3,4.67-.6,7.02-.88,2.48-.32,4.98-.64,7.49-.96-.08,1.89-.12,3.83-.12,5.83,0,5.5.29,11.47.88,17.9.8,7.78,1.91,14.91,3.32,21.37l-5.46.87c-1.8.29-3.59.56-5.37.83v-.21c.08-2.45.16-4.92.24-7.39-1.23.05-2.47.09-3.7.12-.08.65-.16,1.3-.23,1.93l-.59,4.52c-1.76.2-3.51.42-5.25.64-2.62.33-5.24.67-7.84,1,2.33-9.74,4.49-19.53,6.49-29.39ZM90.08,117.87l3.29-.11c-.04-2.54-.09-5.08-.15-7.62l-.23-15.24-.53,4.22c-.8,6.25-1.6,12.5-2.38,18.74Z"/>
      <path class="cls-2" d="M108.75,105.81c.84-6.7,1.6-13.43,2.29-20.17.98-.24,1.97-.48,2.96-.72l6.81-1.66c.55,3.76,1.15,7.53,1.82,11.32.63,3.67,1.31,7.36,2.05,11.06.78-3.17,1.62-6.32,2.52-9.42,1.21-4.28,2.53-8.5,3.96-12.66l3.87-.99c2.15-.56,4.3-1.12,6.43-1.67-.49,7.61-.74,15.25-.76,22.95v.88c0,7.67.24,15.38.73,23.11l-2.35.54c-2.9.68-5.79,1.34-8.69,2,.04-3.12.08-6.24.12-9.38.04-3.92.08-7.83.12-11.73-1.04,2.65-2.02,5.51-2.94,8.56-.78,2.55-1.46,5.02-2.03,7.4-1.17.24-2.34.48-3.49.72-.84.17-1.67.33-2.5.5-.53-2.17-1.02-4.42-1.47-6.74-.59-2.87-1.08-5.65-1.47-8.33-.33,6.4-.68,12.79-1.03,19.19l-10.86,2.37c1.45-9,2.74-18.04,3.87-27.12Z"/>
      <path class="cls-2" d="M143.44,126.88c.53-9.47.91-18.93,1.14-28.39.14-6.18.23-12.36.26-18.55l1.88-.26c.51-.07,1.02-.14,1.53-.19v-.03l.88-.09c.1-.03.2-.05.32-.06,1.25-.17,2.51-.33,3.76-.48,1-.14,2-.28,2.99-.4,2.88-.4,5.75-.83,8.63-1.29,2.56-.41,5.12-.83,7.66-1.28-.04.67-.09,1.34-.15,2.01l-.59,7.4c-2.64.18-5.35.42-8.13.71-1.84.19-3.72.41-5.64.65-1.02.15-2.02.29-2.99.43-.37,2.97-.68,6.01-.94,9.11,2.31-.3,4.06-.53,5.26-.7,3.25-.48,6.48-.98,9.69-1.52-.12,1.66-.23,3.32-.32,5-.08,1.28-.17,2.55-.26,3.81-3.86.17-7.86.46-12.01.88-.84.11-1.68.21-2.53.29-.06,0-.12.02-.18.05l-.15.02c-.18,3.6-.26,7.3-.26,11.09v1.12c2.6-.33,5.3-.78,8.1-1.35,3.21-.67,6.17-1.4,8.89-2.2-.06,2.37-.12,4.76-.18,7.15l-.12,4.36c-3.88.17-7.89.48-12.04.91l-2.53.27c-.08,0-.19.02-.34.05-.15.02-.36.05-.63.08-.45.05-1.18.14-2.2.29-1.25.15-2.74.34-4.45.56-1.71.22-3.17.4-4.39.55Z"/>
      <path class="cls-2" d="M171.86,118.08l6.05-9.32c1.53,1.56,2.99,2.52,4.39,2.87,1.4.35,2.53.48,3.39.39.74-.08,1.45-.28,2.11-.6,1.1-.6,1.85-1.31,2.27-2.12.42-.81.63-1.47.63-2,0-.43-.11-.85-.32-1.26-.35-.53-.9-.9-1.64-1.1-.74-.2-1.61-.36-2.61-.47-1.25-.12-2.61-.39-4.08-.79-1.47-.4-2.93-1.18-4.37-2.34-.16-.12-.46-.4-.91-.84-.45-.44-.91-1-1.38-1.68-1.23-1.98-1.85-4.16-1.85-6.53,0-.7.14-2.04.43-4.01.28-1.97,1.43-4.24,3.45-6.81,2.02-2.57,4.57-4.15,7.66-4.75.18-.04.38-.07.62-.09.43-.05,1.04-.06,1.83-.06.79,0,1.79.26,2.98.76,1.9.9,3.45,2.39,4.65,4.47,1.2,2.09,1.93,4.51,2.19,7.29-2.66.26-5.32.53-7.98.81v-.26c0-.18-.01-.43-.03-.76-.02-.33-.12-.73-.31-1.2-.19-.47-.49-.87-.92-1.19l-.68-.31c-.18-.06-.35-.08-.53-.06-.08,0-.2.04-.37.08-.17.05-.35.13-.54.25-.2.12-.32.2-.38.25-.33.21-.86.72-1.58,1.53-.72.81-1.26,1.62-1.6,2.43-.34.81-.51,1.47-.51,1.98,0,.55.13,1.08.38,1.6.51.9,1.33,1.52,2.45,1.86s2.4.59,3.83.77c1.58.17,3.17.48,4.77.95,1.59.47,3.01,1.32,4.24,2.56,1.29,1.49,2.01,2.86,2.17,4.12.16,1.26.23,2.25.23,2.97,0,.86-.1,1.83-.31,2.89-.21,1.07-.39,1.81-.54,2.22-.98,2.71-2.63,4.99-4.96,6.86-2.33,1.87-4.35,2.97-6.08,3.31-1.72.34-2.82.53-3.29.58-2.47.26-4.89-.09-7.28-1.05-1.29-.57-2.41-1.23-3.36-1.99-.95-.76-1.72-1.48-2.3-2.17Z"/>
    </g>
    <g>
      <path class="cls-1" d="M44.4,106.79c1.31-3.8,3.16-7.15,5.55-10.05,2.39-2.9,5.1-5,8.13-6.3.8-.4,1.63-.68,2.5-.83.86-.16,1.39-.25,1.58-.27,1.39-.15,2.96.07,4.73.65,2.17.87,3.91,2.01,5.21,3.41,1.3,1.41,2.17,2.49,2.6,3.25-.98.79-1.95,1.57-2.91,2.33-1.1.88-2.2,1.76-3.32,2.64-.41-.33-1-.69-1.78-1.09-.77-.4-1.67-.66-2.69-.79-.47-.03-.91-.02-1.32.02-.8.08-1.58.34-2.32.76-.74.42-1.37.88-1.88,1.39-1.62,1.5-2.91,3.41-3.84,5.73s-1.41,4.61-1.41,6.86c0,.12.01.79.04,2.02.03,1.23.75,2.55,2.16,3.97,1.04.99,2.12,1.66,3.26,2.01,1.13.35,2.08.48,2.85.4.59-.06,1.16-.23,1.73-.51.74-.43,1.3-.97,1.67-1.61.37-.65.62-1.26.73-1.84.12-.58.18-.98.18-1.19-2.15.13-4.29.25-6.43.35.08-2.38.16-4.76.26-7.16,0-.16,0-.31.03-.47l7.81-.41c2.62-.14,5.23-.28,7.84-.41.47,1.77.73,3.4.78,4.88s.07,2.33.07,2.55c0,2.52-.49,5.18-1.47,7.96-.88,2.25-2.14,4.35-3.79,6.33-1.64,1.97-3.36,3.41-5.15,4.31s-3.42,1.43-4.89,1.59c-.98.1-1.99.09-3.02-.03-.57-.04-1.7-.33-3.4-.86-1.7-.54-3.51-1.61-5.43-3.23l-.94-1.05c-.65-.7-1.32-1.57-2.02-2.63-2.1-3.4-3.19-6.21-3.29-8.42-.1-2.21-.15-3.55-.15-4.02,0-3.46.58-6.87,1.73-10.22Z"/>
      <path class="cls-1" d="M82.56,103.86c1.1-5.38,2.14-10.77,3.14-16.18,2.33-.3,4.67-.6,7.02-.88,2.48-.32,4.98-.64,7.49-.96-.08,1.89-.12,3.83-.12,5.83,0,5.5.29,11.47.88,17.9.8,7.78,1.91,14.91,3.32,21.37l-5.46.87c-1.8.29-3.59.56-5.37.83v-.21c.08-2.45.16-4.92.24-7.39-1.23.05-2.47.09-3.7.12-.08.65-.16,1.3-.23,1.93l-.59,4.52c-1.76.2-3.51.42-5.25.64-2.62.33-5.24.67-7.84,1,2.33-9.74,4.49-19.53,6.49-29.39ZM90.08,117.87l3.29-.11c-.04-2.54-.09-5.08-.15-7.62l-.23-15.24-.53,4.22c-.8,6.25-1.6,12.5-2.38,18.74Z"/>
      <path class="cls-1" d="M108.75,105.81c.84-6.7,1.6-13.43,2.29-20.17.98-.24,1.97-.48,2.96-.72l6.81-1.66c.55,3.76,1.15,7.53,1.82,11.32.63,3.67,1.31,7.36,2.05,11.06.78-3.17,1.62-6.32,2.52-9.42,1.21-4.28,2.53-8.5,3.96-12.66l3.87-.99c2.15-.56,4.3-1.12,6.43-1.67-.49,7.61-.74,15.25-.76,22.95v.88c0,7.67.24,15.38.73,23.11l-2.35.54c-2.9.68-5.79,1.34-8.69,2,.04-3.12.08-6.24.12-9.38.04-3.92.08-7.83.12-11.73-1.04,2.65-2.02,5.51-2.94,8.56-.78,2.55-1.46,5.02-2.03,7.4-1.17.24-2.34.48-3.49.72-.84.17-1.67.33-2.5.5-.53-2.17-1.02-4.42-1.47-6.74-.59-2.87-1.08-5.65-1.47-8.33-.33,6.4-.68,12.79-1.03,19.19l-10.86,2.37c1.45-9,2.74-18.04,3.87-27.12Z"/>
      <path class="cls-1" d="M143.44,126.88c.53-9.47.91-18.93,1.14-28.39.14-6.18.23-12.36.26-18.55l1.88-.26c.51-.07,1.02-.14,1.53-.19v-.03l.88-.09c.1-.03.2-.05.32-.06,1.25-.17,2.51-.33,3.76-.48,1-.14,2-.28,2.99-.4,2.88-.4,5.75-.83,8.63-1.29,2.56-.41,5.12-.83,7.66-1.28-.04.67-.09,1.34-.15,2.01l-.59,7.4c-2.64.18-5.35.42-8.13.71-1.84.19-3.72.41-5.64.65-1.02.15-2.02.29-2.99.43-.37,2.97-.68,6.01-.94,9.11,2.31-.3,4.06-.53,5.26-.7,3.25-.48,6.48-.98,9.69-1.52-.12,1.66-.23,3.32-.32,5-.08,1.28-.17,2.55-.26,3.81-3.86.17-7.86.46-12.01.88-.84.11-1.68.21-2.53.29-.06,0-.12.02-.18.05l-.15.02c-.18,3.6-.26,7.3-.26,11.09v1.12c2.6-.33,5.3-.78,8.1-1.35,3.21-.67,6.17-1.4,8.89-2.2-.06,2.37-.12,4.76-.18,7.15l-.12,4.36c-3.88.17-7.89.48-12.04.91l-2.53.27c-.08,0-.19.02-.34.05-.15.02-.36.05-.63.08-.45.05-1.18.14-2.2.29-1.25.15-2.74.34-4.45.56-1.71.22-3.17.4-4.39.55Z"/>
      <path class="cls-1" d="M171.86,118.08l6.05-9.32c1.53,1.56,2.99,2.52,4.39,2.87,1.4.35,2.53.48,3.39.39.74-.08,1.45-.28,2.11-.6,1.1-.6,1.85-1.31,2.27-2.12.42-.81.63-1.47.63-2,0-.43-.11-.85-.32-1.26-.35-.53-.9-.9-1.64-1.1-.74-.2-1.61-.36-2.61-.47-1.25-.12-2.61-.39-4.08-.79-1.47-.4-2.93-1.18-4.37-2.34-.16-.12-.46-.4-.91-.84-.45-.44-.91-1-1.38-1.68-1.23-1.98-1.85-4.16-1.85-6.53,0-.7.14-2.04.43-4.01.28-1.97,1.43-4.24,3.45-6.81,2.02-2.57,4.57-4.15,7.66-4.75.18-.04.38-.07.62-.09.43-.05,1.04-.06,1.83-.06.79,0,1.79.26,2.98.76,1.9.9,3.45,2.39,4.65,4.47,1.2,2.09,1.93,4.51,2.19,7.29-2.66.26-5.32.53-7.98.81v-.26c0-.18-.01-.43-.03-.76-.02-.33-.12-.73-.31-1.2-.19-.47-.49-.87-.92-1.19l-.68-.31c-.18-.06-.35-.08-.53-.06-.08,0-.2.04-.37.08-.17.05-.35.13-.54.25-.2.12-.32.2-.38.25-.33.21-.86.72-1.58,1.53-.72.81-1.26,1.62-1.6,2.43-.34.81-.51,1.47-.51,1.98,0,.55.13,1.08.38,1.6.51.9,1.33,1.52,2.45,1.86s2.4.59,3.83.77c1.58.17,3.17.48,4.77.95,1.59.47,3.01,1.32,4.24,2.56,1.29,1.49,2.01,2.86,2.17,4.12.16,1.26.23,2.25.23,2.97,0,.86-.1,1.83-.31,2.89-.21,1.07-.39,1.81-.54,2.22-.98,2.71-2.63,4.99-4.96,6.86-2.33,1.87-4.35,2.97-6.08,3.31-1.72.34-2.82.53-3.29.58-2.47.26-4.89-.09-7.28-1.05-1.29-.57-2.41-1.23-3.36-1.99-.95-.76-1.72-1.48-2.3-2.17Z"/>
    </g>
    <g>
      <path class="cls-4" d="M44.4,106.79c1.31-3.8,3.16-7.15,5.55-10.05,2.39-2.9,5.1-5,8.13-6.3.8-.4,1.63-.68,2.5-.83.86-.16,1.39-.25,1.58-.27,1.39-.15,2.96.07,4.73.65,2.17.87,3.91,2.01,5.21,3.41,1.3,1.41,2.17,2.49,2.6,3.25-.98.79-1.95,1.57-2.91,2.33-1.1.88-2.2,1.76-3.32,2.64-.41-.33-1-.69-1.78-1.09-.77-.4-1.67-.66-2.69-.79-.47-.03-.91-.02-1.32.02-.8.08-1.58.34-2.32.76-.74.42-1.37.88-1.88,1.39-1.62,1.5-2.91,3.41-3.84,5.73s-1.41,4.61-1.41,6.86c0,.12.01.79.04,2.02.03,1.23.75,2.55,2.16,3.97,1.04.99,2.12,1.66,3.26,2.01,1.13.35,2.08.48,2.85.4.59-.06,1.16-.23,1.73-.51.74-.43,1.3-.97,1.67-1.61.37-.65.62-1.26.73-1.84.12-.58.18-.98.18-1.19-2.15.13-4.29.25-6.43.35.08-2.38.16-4.76.26-7.16,0-.16,0-.31.03-.47l7.81-.41c2.62-.14,5.23-.28,7.84-.41.47,1.77.73,3.4.78,4.88s.07,2.33.07,2.55c0,2.52-.49,5.18-1.47,7.96-.88,2.25-2.14,4.35-3.79,6.33-1.64,1.97-3.36,3.41-5.15,4.31s-3.42,1.43-4.89,1.59c-.98.1-1.99.09-3.02-.03-.57-.04-1.7-.33-3.4-.86-1.7-.54-3.51-1.61-5.43-3.23l-.94-1.05c-.65-.7-1.32-1.57-2.02-2.63-2.1-3.4-3.19-6.21-3.29-8.42-.1-2.21-.15-3.55-.15-4.02,0-3.46.58-6.87,1.73-10.22Z"/>
      <path class="cls-4" d="M82.56,103.86c1.1-5.38,2.14-10.77,3.14-16.18,2.33-.3,4.67-.6,7.02-.88,2.48-.32,4.98-.64,7.49-.96-.08,1.89-.12,3.83-.12,5.83,0,5.5.29,11.47.88,17.9.8,7.78,1.91,14.91,3.32,21.37l-5.46.87c-1.8.29-3.59.56-5.37.83v-.21c.08-2.45.16-4.92.24-7.39-1.23.05-2.47.09-3.7.12-.08.65-.16,1.3-.23,1.93l-.59,4.52c-1.76.2-3.51.42-5.25.64-2.62.33-5.24.67-7.84,1,2.33-9.74,4.49-19.53,6.49-29.39ZM90.08,117.87l3.29-.11c-.04-2.54-.09-5.08-.15-7.62l-.23-15.24-.53,4.22c-.8,6.25-1.6,12.5-2.38,18.74Z"/>
      <path class="cls-4" d="M108.75,105.81c.84-6.7,1.6-13.43,2.29-20.17.98-.24,1.97-.48,2.96-.72l6.81-1.66c.55,3.76,1.15,7.53,1.82,11.32.63,3.67,1.31,7.36,2.05,11.06.78-3.17,1.62-6.32,2.52-9.42,1.21-4.28,2.53-8.5,3.96-12.66l3.87-.99c2.15-.56,4.3-1.12,6.43-1.67-.49,7.61-.74,15.25-.76,22.95v.88c0,7.67.24,15.38.73,23.11l-2.35.54c-2.9.68-5.79,1.34-8.69,2,.04-3.12.08-6.24.12-9.38.04-3.92.08-7.83.12-11.73-1.04,2.65-2.02,5.51-2.94,8.56-.78,2.55-1.46,5.02-2.03,7.4-1.17.24-2.34.48-3.49.72-.84.17-1.67.33-2.5.5-.53-2.17-1.02-4.42-1.47-6.74-.59-2.87-1.08-5.65-1.47-8.33-.33,6.4-.68,12.79-1.03,19.19l-10.86,2.37c1.45-9,2.74-18.04,3.87-27.12Z"/>
      <path class="cls-4" d="M143.44,126.88c.53-9.47.91-18.93,1.14-28.39.14-6.18.23-12.36.26-18.55l1.88-.26c.51-.07,1.02-.14,1.53-.19v-.03l.88-.09c.1-.03.2-.05.32-.06,1.25-.17,2.51-.33,3.76-.48,1-.14,2-.28,2.99-.4,2.88-.4,5.75-.83,8.63-1.29,2.56-.41,5.12-.83,7.66-1.28-.04.67-.09,1.34-.15,2.01l-.59,7.4c-2.64.18-5.35.42-8.13.71-1.84.19-3.72.41-5.64.65-1.02.15-2.02.29-2.99.43-.37,2.97-.68,6.01-.94,9.11,2.31-.3,4.06-.53,5.26-.7,3.25-.48,6.48-.98,9.69-1.52-.12,1.66-.23,3.32-.32,5-.08,1.28-.17,2.55-.26,3.81-3.86.17-7.86.46-12.01.88-.84.11-1.68.21-2.53.29-.06,0-.12.02-.18.05l-.15.02c-.18,3.6-.26,7.3-.26,11.09v1.12c2.6-.33,5.3-.78,8.1-1.35,3.21-.67,6.17-1.4,8.89-2.2-.06,2.37-.12,4.76-.18,7.15l-.12,4.36c-3.88.17-7.89.48-12.04.91l-2.53.27c-.08,0-.19.02-.34.05-.15.02-.36.05-.63.08-.45.05-1.18.14-2.2.29-1.25.15-2.74.34-4.45.56-1.71.22-3.17.4-4.39.55Z"/>
      <path class="cls-4" d="M171.86,118.08l6.05-9.32c1.53,1.56,2.99,2.52,4.39,2.87,1.4.35,2.53.48,3.39.39.74-.08,1.45-.28,2.11-.6,1.1-.6,1.85-1.31,2.27-2.12.42-.81.63-1.47.63-2,0-.43-.11-.85-.32-1.26-.35-.53-.9-.9-1.64-1.1-.74-.2-1.61-.36-2.61-.47-1.25-.12-2.61-.39-4.08-.79-1.47-.4-2.93-1.18-4.37-2.34-.16-.12-.46-.4-.91-.84-.45-.44-.91-1-1.38-1.68-1.23-1.98-1.85-4.16-1.85-6.53,0-.7.14-2.04.43-4.01.28-1.97,1.43-4.24,3.45-6.81,2.02-2.57,4.57-4.15,7.66-4.75.18-.04.38-.07.62-.09.43-.05,1.04-.06,1.83-.06.79,0,1.79.26,2.98.76,1.9.9,3.45,2.39,4.65,4.47,1.2,2.09,1.93,4.51,2.19,7.29-2.66.26-5.32.53-7.98.81v-.26c0-.18-.01-.43-.03-.76-.02-.33-.12-.73-.31-1.2-.19-.47-.49-.87-.92-1.19l-.68-.31c-.18-.06-.35-.08-.53-.06-.08,0-.2.04-.37.08-.17.05-.35.13-.54.25-.2.12-.32.2-.38.25-.33.21-.86.72-1.58,1.53-.72.81-1.26,1.62-1.6,2.43-.34.81-.51,1.47-.51,1.98,0,.55.13,1.08.38,1.6.51.9,1.33,1.52,2.45,1.86s2.4.59,3.83.77c1.58.17,3.17.48,4.77.95,1.59.47,3.01,1.32,4.24,2.56,1.29,1.49,2.01,2.86,2.17,4.12.16,1.26.23,2.25.23,2.97,0,.86-.1,1.83-.31,2.89-.21,1.07-.39,1.81-.54,2.22-.98,2.71-2.63,4.99-4.96,6.86-2.33,1.87-4.35,2.97-6.08,3.31-1.72.34-2.82.53-3.29.58-2.47.26-4.89-.09-7.28-1.05-1.29-.57-2.41-1.23-3.36-1.99-.95-.76-1.72-1.48-2.3-2.17Z"/>
    </g>
  </g>
</svg>